{"title":"Private - The Matador Series 04 - Anal Garden","uid":5845531,"size":1503099804,"categoryP":"porn","categoryS":"movies","magnet":"?xt=urn:btih:b0c9dc313fa7d036c626f53a1f7d7053734b6086&amp;dn=Private+-+The+Matador+Series+04+-+Anal+Garden&amp;tr=udp%3A%2F%2Ftracker.openbittorrent.com%3A80&amp;tr=udp%3A%2F%2Fopen.demonii.com%3A1337&amp;tr=udp%3A%2F%2Ftracker.coppersurfer.tk%3A6969&amp;tr=udp%3A%2F%2Fexodus.desync.com%3A6969","seeders":0,"leechers":1,"uploader":null,"files":1,"time":1285155749,"description":" &lt;a href=&quot;http://www.picswan.com/img/share.php?id=EB31_4C99CEA6&quot; rel=&quot;nofollow&quot; target=&quot;_NEW&quot;&gt;http://www.picswan.com/img/share.php?id=EB31_4C99CEA6&lt;/a&gt;\n &lt;a href=&quot;\nhttp://www.picswan.com/img/share.php?id=43A7_4C99CEA6&quot; rel=&quot;nofollow&quot; target=&quot;_NEW&quot;&gt;\nhttp://www.picswan.com/img/share.php?id=43A7_4C99CEA6&lt;/a&gt;\n &lt;a href=&quot;\nhttp://www.picswan.com/img/share.php?id=C24B_4C99CEA6&quot; rel=&quot;nofollow&quot; target=&quot;_NEW&quot;&gt;\nhttp://www.picswan.com/img/share.php?id=C24B_4C99CEA6&lt;/a&gt;\n\nGeneral\nComplete name                    : Private - The Matador Series 04 - Anal Garden.avi\nFormat                           : AVI\nFormat/Info                      : Audio Video Interleave\nFile size                        : 1.40 GiB\nDuration                         : 1h 22mn\nOverall bit rate                 : 2 442 Kbps\nWriting library                  : Boilsoft AVI tool build 1/release\n\nVideo\nID                               : 0\nFormat                           : MPEG-4 Visual\nFormat profile                   : Simple@L1\nFormat settings, BVOP            : No\nFormat settings, QPel            : No\nFormat settings, GMC             : No warppoints\nFormat settings, Matrix          : Default (H.263)\nCodec ID                         : DX50\nCodec ID/Hint                    : DivX 5\nDuration                         : 1h 22mn\nBit rate                         : 2 304 Kbps\nWidth                            : 640 pixels\nHeight                           : 480 pixels\nDisplay aspect ratio             : 4:3\nFrame rate                       : 25.000 fps\nColor space                      : YUV\nChroma subsampling               : 4:2:0\nBit depth                        : 8 bits\nScan type                        : Progressive\nBits/(Pixel*Frame)               : 0.300\nStream size                      : 1.32 GiB (94%)\nWriting library                  : Lavc52.0.0\n\nAudio\nID                               : 1\nFormat                           : MPEG Audio\nFormat version                   : Version 1\nFormat profile                   : Layer 3\nMode                             : Joint stereo\nMode extension                   : MS Stereo\nCodec ID                         : 55\nCodec ID/Hint                    : MP3\nDuration                         : 1h 22mn\nBit rate mode                    : Constant\nBit rate                         : 128 Kbps\nChannel(s)                       : 2 channels\nSampling rate                    : 48.0 KHz\nStream size                      : 75.1 MiB (5%)\nAlignment                        : Split accross interleaves\nInterleave, duration             : 40 ms (1.00 video frame)\nInterleave, preload duration     : 500 ms\nWriting library                  : LAME3.98","torrent":{"xt":"urn:btih:b0c9dc313fa7d036c626f53a1f7d7053734b6086","amp;dn":"Private+-+The+Matador+Series+04+-+Anal+Garden","amp;tr":["udp%3A%2F%2Ftracker.openbittorrent.com%3A80","udp%3A%2F%2Fopen.demonii.com%3A1337","udp%3A%2F%2Ftracker.coppersurfer.tk%3A6969","udp%3A%2F%2Fexodus.desync.com%3A6969"],"infoHash":"b0c9dc313fa7d036c626f53a1f7d7053734b6086","infoHashBuffer":{"type":"Buffer","data":[176,201,220,49,63,167,208,54,198,38,245,58,31,125,112,83,115,75,96,134]},"announce":[],"urlList":[]}}